# xmcd
#
# Track frame offsets: 
#        182
#        10235
#        21767
#        33547
#        44477
#        55542
#        70267
#        87707
#        98230
#        111497
#        128865
#        143707
#        159322
#        174175
#        185685
#        198330
#        210922
#        231965
#
# Disc length: 3266 seconds
#
# Revision: 0
# Processed by: cddbd v1.5.1PL0 Copyright (c) Steve Scherf et al.
# Submitted via: ExactAudioCopy v0.95a5
#
DISCID=f60cc012
DTITLE=Jimmy Reed - Down In Mississippi
DYEAR=1991
DGENRE=Blues
TTITLE0=Ain't That Lovin' You Baby
TTITLE1=You're Something Else
TTITLE2=Hush Hush
TTITLE3=Found Love
TTITLE4=Got Me Chasing You
TTITLE5=Baby What's Wrong
TTITLE6=Down In Mississippi
TTITLE7=Oh John
TTITLE8=Hard Walking Hanna
TTITLE9=Cry Before I Go
TTITLE10=Can't Stand To Leave
TTITLE11=Big Legged Woman
TTITLE12=Funky Funky Soul
TTITLE13=Chrismas Present Blues
TTITLE14=Over The Hump
TTITLE15=Crying Blind
TTITLE16=Instrumental
TTITLE17=Good Is Catching Up With Me
EXTD=
EXTT0=
EXTT1=
EXTT2=
EXTT3=
EXTT4=
EXTT5=
EXTT6=
EXTT7=
EXTT8=
EXTT9=
EXTT10=
EXTT11=
EXTT12=
EXTT13=
EXTT14=
EXTT15=
EXTT16=
EXTT17=
PLAYORDER=
